<svg width="23" height="26" viewBox="0 0 23 26" fill="none" xmlns="http://www.w3.org/2000/svg">
<path d="M17.7677 10.0177C18.5 9.28554 18.5 8.10702 18.5 5.75C18.5 3.39298 18.5 2.21446 17.7677 1.48224M17.7677 10.0177C17.0355 10.75 15.857 10.75 13.5 10.75H8.5C6.14298 10.75 4.96446 10.75 4.23224 10.0177M17.7677 1.48224C17.0355 0.75 15.857 0.75 13.5 0.75H8.5C6.14298 0.75 4.96446 0.75 4.23224 1.48224M4.23224 1.48224C3.5 2.21446 3.5 3.39298 3.5 5.75C3.5 8.10702 3.5 9.28554 4.23224 10.0177" stroke="#22C55E" stroke-width="1.5"/>
<path opacity="0.5" d="M12.25 5.75C12.25 6.44035 11.6904 7 11 7C10.3096 7 9.75 6.44035 9.75 5.75C9.75 5.05965 10.3096 4.5 11 4.5C11.6904 4.5 12.25 5.05965 12.25 5.75Z" stroke="#22C55E" stroke-width="1.5"/>
<path opacity="0.5" d="M18.5 4.5C16.4289 4.5 14.75 2.82106 14.75 0.75" stroke="#22C55E" stroke-width="1.5" stroke-linecap="round"/>
<path opacity="0.5" d="M18.5 7C16.4289 7 14.75 8.67894 14.75 10.75" stroke="#22C55E" stroke-width="1.5" stroke-linecap="round"/>
<path opacity="0.5" d="M3.5 4.5C5.57106 4.5 7.25 2.82106 7.25 0.75" stroke="#22C55E" stroke-width="1.5" stroke-linecap="round"/>
<path opacity="0.5" d="M3.5 7C5.57106 7 7.25 8.67894 7.25 10.75" stroke="#22C55E" stroke-width="1.5" stroke-linecap="round"/>
<path opacity="0.5" d="M1 23.7355H3.82491C5.08849 23.7355 6.36566 23.8672 7.59541 24.1205C9.77075 24.5687 12.061 24.6229 14.2586 24.2673C15.3423 24.0918 16.4075 23.8237 17.3719 23.3582C18.2424 22.938 19.3086 22.3458 20.0249 21.6824C20.7401 21.02 21.485 19.9359 22.0136 19.0884C22.467 18.3618 22.2477 17.4703 21.5306 16.9288C20.7341 16.3274 19.5521 16.3275 18.7557 16.9292L16.4967 18.6355C15.6212 19.2969 14.665 19.9057 13.5258 20.0874C13.3888 20.1093 13.2453 20.1292 13.0955 20.1465M13.0955 20.1465C13.0504 20.1518 13.0048 20.1568 12.9585 20.1615M13.0955 20.1465C13.2778 20.1075 13.4586 19.995 13.6285 19.8469C14.4325 19.1452 14.4833 17.9625 13.7856 17.1789C13.6239 16.9972 13.4344 16.8455 13.2239 16.7199C9.72713 14.6343 4.28678 16.2228 1 18.5537M13.0955 20.1465C13.0499 20.1563 13.0041 20.1615 12.9585 20.1615M12.9585 20.1615C12.3043 20.2287 11.539 20.246 10.6897 20.1658" stroke="#22C55E" stroke-width="1.5" stroke-linecap="round"/>
</svg>
