<svg width="20" height="20" viewBox="0 0 20 20" fill="none" xmlns="http://www.w3.org/2000/svg">
<path opacity="0.5" d="M2.7291 12.7466C2.02082 11.8264 1.66669 11.3663 1.66669 10.0002C1.66669 8.634 2.02082 8.17394 2.7291 7.25377C4.14332 5.41646 6.51511 3.3335 10 3.3335C13.4849 3.3335 15.8567 5.41646 17.2709 7.25377C17.9792 8.17394 18.3334 8.634 18.3334 10.0002C18.3334 11.3663 17.9792 11.8264 17.2709 12.7466C15.8567 14.5838 13.4849 16.6668 10 16.6668C6.51511 16.6668 4.14332 14.5838 2.7291 12.7466Z" stroke="#636363" stroke-width="1.5"/>
<path d="M12.5 10C12.5 11.3807 11.3807 12.5 10 12.5C8.61925 12.5 7.5 11.3807 7.5 10C7.5 8.61925 8.61925 7.5 10 7.5C11.3807 7.5 12.5 8.61925 12.5 10Z" stroke="#636363" stroke-width="1.5"/>
</svg>
