<svg width="30" height="26" viewBox="0 0 30 26" fill="none" xmlns="http://www.w3.org/2000/svg">
<path d="M15 11.5C17.7614 11.5 20 9.26142 20 6.5C20 3.73858 17.7614 1.5 15 1.5C12.2386 1.5 10 3.73858 10 6.5C10 9.26142 12.2386 11.5 15 11.5Z" stroke="#22C55E" stroke-width="1.5"/>
<path opacity="0.5" d="M22.5 10.25C24.5711 10.25 26.25 8.85089 26.25 7.125C26.25 5.39911 24.5711 4 22.5 4" stroke="#22C55E" stroke-width="1.5" stroke-linecap="round"/>
<path opacity="0.5" d="M7.5 10.25C5.42894 10.25 3.75 8.85089 3.75 7.125C3.75 5.39911 5.42894 4 7.5 4" stroke="#22C55E" stroke-width="1.5" stroke-linecap="round"/>
<path d="M15 25.25C19.1421 25.25 22.5 23.0114 22.5 20.25C22.5 17.4886 19.1421 15.25 15 15.25C10.8579 15.25 7.5 17.4886 7.5 20.25C7.5 23.0114 10.8579 25.25 15 25.25Z" stroke="#22C55E" stroke-width="1.5"/>
<path opacity="0.5" d="M25 22.75C27.1927 22.2691 28.75 21.0514 28.75 19.625C28.75 18.1986 27.1927 16.9809 25 16.5" stroke="#22C55E" stroke-width="1.5" stroke-linecap="round"/>
<path opacity="0.5" d="M5 22.75C2.80719 22.2691 1.25 21.0514 1.25 19.625C1.25 18.1986 2.80719 16.9809 5 16.5" stroke="#22C55E" stroke-width="1.5" stroke-linecap="round"/>
</svg>
