<svg width="20" height="20" viewBox="0 0 20 20" fill="none" xmlns="http://www.w3.org/2000/svg">
<g clip-path="url(#clip0_17_109)">
<path d="M1.66669 13.3335C1.66669 10.9765 1.66669 9.798 2.39892 9.06575C3.13115 8.3335 4.30966 8.3335 6.66669 8.3335H13.3334C15.6904 8.3335 16.8689 8.3335 17.6011 9.06575C18.3334 9.798 18.3334 10.9765 18.3334 13.3335C18.3334 15.6905 18.3334 16.869 17.6011 17.6012C16.8689 18.3335 15.6904 18.3335 13.3334 18.3335H6.66669C4.30966 18.3335 3.13115 18.3335 2.39892 17.6012C1.66669 16.869 1.66669 15.6905 1.66669 13.3335Z" stroke="#fff" stroke-width="1.5"/>
<path opacity="0.5" d="M10 15.0001C10.9205 15.0001 11.6667 14.2539 11.6667 13.3334C11.6667 12.4129 10.9205 11.6667 10 11.6667C9.07957 11.6667 8.33337 12.4129 8.33337 13.3334C8.33337 14.2539 9.07957 15.0001 10 15.0001Z" stroke="#fff" stroke-width="1.5"/>
<path opacity="0.5" d="M5 8.33341V6.66675C5 3.90532 7.23857 1.66675 10 1.66675C12.3298 1.66675 14.2874 3.26021 14.8425 5.41675" stroke="#fff" stroke-width="1.5" stroke-linecap="round"/>
</g>
<defs>
<clipPath id="clip0_17_109">
<rect width="20" height="20" fill="white"/>
</clipPath>
</defs>
</svg>
