<svg width="26" height="24" viewBox="0 0 26 24" fill="none" xmlns="http://www.w3.org/2000/svg">
<path d="M2.8297 17.569C1.75726 13.2793 1.22105 11.1344 2.34709 9.69225C3.47313 8.25 5.68401 8.25 10.1058 8.25H15.8941C20.3159 8.25 22.5267 8.25 23.6527 9.69225C24.7789 11.1344 24.2426 13.2793 23.1702 17.569C22.4881 20.2974 22.147 21.6615 21.1299 22.4557C20.1126 23.25 18.7065 23.25 15.8941 23.25H10.1058C7.29345 23.25 5.88729 23.25 4.87006 22.4557C3.85284 21.6615 3.51179 20.2974 2.8297 17.569Z" stroke="#22C55E" stroke-width="1.5"/>
<path opacity="0.5" d="M22.375 8.875L21.487 5.61831C21.1446 4.36256 20.9734 3.73469 20.6222 3.26182C20.2725 2.79091 19.7972 2.42793 19.251 2.2144C18.7024 2 18.0516 2 16.75 2M3.625 8.875L4.513 5.61831C4.8554 4.36256 5.0266 3.73469 5.37776 3.26182C5.72749 2.79091 6.2027 2.42793 6.74902 2.2144C7.2976 2 7.9484 2 9.25 2" stroke="#22C55E" stroke-width="1.5"/>
<path d="M9.25 2C9.25 1.30965 9.80965 0.75 10.5 0.75H15.5C16.1904 0.75 16.75 1.30965 16.75 2C16.75 2.69035 16.1904 3.25 15.5 3.25H10.5C9.80965 3.25 9.25 2.69035 9.25 2Z" stroke="#22C55E" stroke-width="1.5"/>
<path opacity="0.5" d="M8 13.25V18.25" stroke="#22C55E" stroke-width="1.5" stroke-linecap="round" stroke-linejoin="round"/>
<path opacity="0.5" d="M18 13.25V18.25" stroke="#22C55E" stroke-width="1.5" stroke-linecap="round" stroke-linejoin="round"/>
<path opacity="0.5" d="M13 13.25V18.25" stroke="#22C55E" stroke-width="1.5" stroke-linecap="round" stroke-linejoin="round"/>
</svg>
